<?xml version="1.0" standalone="no"?>
<!DOCTYPE svg PUBLIC "-//W3C//DTD SVG 20010904//EN"
 "http://www.w3.org/TR/2001/REC-SVG-20010904/DTD/svg10.dtd">
<svg version="1.0" xmlns="http://www.w3.org/2000/svg"
 width="945.000000pt" height="945.000000pt" viewBox="0 0 945.000000 945.000000"
 preserveAspectRatio="xMidYMid meet">

<g transform="translate(0.000000,945.000000) scale(0.100000,-0.100000)"
fill="#000000" stroke="none">
<path d="M4388 8852 l-28 -18 81 -79 c112 -111 192 -235 214 -333 6 -29 9 -31
33 -26 41 10 44 18 32 65 -14 52 -56 131 -116 214 -47 66 -166 195 -180 195
-5 0 -21 -8 -36 -18z"/>
<path d="M4134 8770 c3 -8 23 -71 46 -140 47 -139 63 -278 41 -356 -22 -83
-94 -145 -203 -174 -81 -21 -308 -7 -463 29 -311 73 -531 42 -635 -91 -52 -66
-74 -140 -74 -253 1 -79 29 -253 40 -243 2 3 -3 38 -12 79 -23 110 -15 257 18
329 89 193 303 236 686 139 175 -44 318 -57 420 -37 146 29 211 77 252 185 42
112 9 302 -85 480 -20 37 -34 61 -31 53z"/>
<path d="M5347 8713 c-23 -27 -30 -82 -17 -152 6 -35 9 -66 6 -69 -13 -12
-114 0 -183 23 -110 37 -275 125 -370 198 -7 5 -13 7 -13 3 0 -12 218 -159
285 -191 105 -50 153 -65 232 -72 l72 -6 17 -51 c70 -217 190 -423 309 -535
61 -56 171 -122 204 -120 9 0 3 5 -14 11 -160 58 -319 273 -435 588 l-42 115
23 15 c52 34 79 63 87 93 22 84 -31 167 -107 167 -23 0 -44 -7 -54 -17z m98
-46 c20 -17 27 -33 28 -61 1 -32 -5 -44 -37 -73 -26 -24 -41 -32 -48 -25 -12
12 -24 143 -15 166 9 23 42 20 72 -7z"/>
<path d="M4860 8445 c0 -15 29 -73 43 -87 9 -9 31 -47 49 -84 29 -59 38 -69
68 -77 41 -11 204 -3 240 11 23 9 24 10 5 17 -51 17 -66 27 -136 87 -90 78
-127 101 -198 122 -59 17 -71 19 -71 11z"/>
<path d="M4662 8358 c-69 -26 -85 -60 -86 -173 -1 -106 19 -147 130 -274 l88
-100 28 52 c16 29 42 69 59 90 45 56 62 116 57 198 -6 80 -43 165 -89 204 -39
32 -110 33 -187 3z"/>
<path d="M4454 8286 c-54 -57 -105 -149 -142 -256 -16 -47 -33 -94 -37 -104
-23 -53 131 91 214 199 53 70 70 130 52 178 -15 38 -38 33 -87 -17z"/>
<path d="M2190 8226 c0 -36 -12 -38 -54 -10 -37 26 -56 25 -56 -3 0 -12 -7
-14 -35 -9 -33 6 -35 5 -35 -19 0 -25 0 -25 -36 -10 -55 23 -65 20 -57 -15 3
-16 3 -30 1 -30 -3 0 -22 14 -43 30 -21 17 -42 30 -46 30 -5 0 -9 -13 -9 -30
0 -35 -4 -36 -37 -10 -34 27 -42 25 -40 -7 2 -27 0 -28 -40 -25 -46 2 -61 -9
-38 -28 26 -22 16 -30 -35 -30 -56 0 -63 -10 -22 -31 26 -14 25 -14 -35 -17
-35 -2 -63 -6 -63 -9 0 -4 12 -20 27 -35 l27 -28 -42 0 c-43 0 -54 -14 -31
-37 17 -17 3 -30 -39 -37 -22 -3 -45 -13 -52 -21 -11 -13 -7 -15 31 -15 51 0
89 -9 89 -20 0 -5 -17 -14 -37 -21 l-38 -13 48 -7 c59 -9 64 -13 46 -35 -13
-16 -10 -17 31 -10 25 3 72 9 105 12 83 8 56 -8 -63 -37 l-96 -24 39 -11 c48
-13 38 -20 -42 -29 -66 -7 -81 -23 -40 -43 21 -10 20 -11 -11 -11 -39 -1 -102
-26 -102 -40 0 -6 16 -11 35 -11 38 0 50 -24 17 -34 -11 -4 -30 -18 -43 -32
-18 -20 -21 -27 -10 -33 7 -5 21 -6 31 -4 29 8 31 -12 5 -37 -32 -30 -32 -44
0 -38 33 7 32 -11 -3 -48 -15 -16 -34 -38 -42 -48 -14 -18 -13 -19 23 -13 20
3 37 2 37 -2 0 -5 -20 -27 -44 -49 -44 -40 -51 -61 -14 -41 28 15 38 2 22 -29
-7 -15 -14 -40 -14 -55 0 -26 2 -27 23 -16 25 14 63 52 70 71 3 10 9 9 25 -5
20 -18 21 -17 56 18 29 28 37 33 42 20 10 -25 38 -17 58 16 l19 32 17 -23 17
-23 27 46 c15 25 33 51 41 57 13 11 15 7 15 -19 0 -17 3 -31 8 -31 4 0 20 24
36 53 38 68 67 109 73 104 2 -3 -4 -28 -14 -56 -15 -44 -16 -53 -4 -61 12 -7
13 -15 3 -48 -17 -56 -16 -64 8 -57 20 6 21 4 14 -43 -9 -72 10 -76 40 -8 14
31 28 56 31 56 3 0 10 -11 15 -25 5 -14 14 -25 20 -25 5 0 25 30 44 68 31 59
35 64 36 37 0 -37 16 -64 28 -50 18 20 41 93 35 114 -9 34 10 24 32 -17 25
-46 39 -47 43 -2 5 61 11 68 32 40 l19 -25 10 28 c6 16 11 35 11 43 0 19 26
18 34 -2 8 -22 26 -8 26 21 0 31 20 43 35 22 31 -43 50 3 35 84 -10 54 -29 79
-123 156 -15 13 -27 29 -27 37 0 13 7 13 53 -1 28 -8 55 -17 60 -20 11 -6 9 3
-10 42 -14 29 -24 36 -55 41 -27 5 -38 12 -38 24 0 23 28 30 82 19 67 -13 81
-11 74 7 -4 11 1 22 14 31 23 16 26 33 6 33 -26 0 -29 21 -7 44 29 31 27 36
-14 36 -41 0 -47 21 -15 55 12 12 24 39 27 60 6 36 5 37 -16 26 -30 -16 -38
-9 -44 44 -6 56 -12 63 -35 42 -23 -21 -32 -21 -32 -1 0 26 -22 94 -31 94 -4
0 -11 -9 -14 -20 -9 -29 -33 -25 -53 10 -21 36 -32 38 -32 6z m-351 -178 c52
-31 97 -75 143 -140 23 -32 46 -58 52 -58 6 0 28 -9 49 -20 21 -11 42 -18 47
-15 18 11 -27 114 -87 198 -19 27 -31 52 -28 55 21 21 153 -186 170 -265 3
-18 20 -49 36 -69 36 -46 37 -62 2 -70 -32 -8 -57 -27 -84 -65 -18 -26 -18
-27 3 -67 21 -37 22 -44 10 -89 -7 -26 -20 -55 -27 -63 -13 -12 -13 -10 -5 20
24 83 3 136 -44 110 -13 -7 -33 -24 -43 -39 -25 -33 -69 -143 -85 -212 l-13
-54 -3 40 c-4 46 10 100 44 168 14 26 22 52 19 57 -12 19 -63 10 -106 -19 -44
-30 -62 -33 -40 -7 21 25 113 66 147 66 26 0 34 6 44 30 7 17 37 55 67 85 l55
55 -54 0 c-30 0 -79 -7 -109 -16 -78 -23 -220 -99 -273 -146 -44 -38 -46 -42
-46 -93 0 -30 5 -66 10 -81 6 -15 8 -29 5 -33 -8 -7 -24 17 -29 44 -3 11 -7
32 -11 48 -3 18 -12 27 -24 27 -26 0 -103 -88 -158 -179 -47 -79 -51 -63 -9
32 46 103 126 193 241 272 l40 27 -46 -4 c-25 -3 -69 -17 -99 -32 -29 -15 -55
-25 -57 -22 -8 7 78 66 127 88 25 11 78 26 118 33 40 7 81 19 90 27 40 33 152
67 227 68 l40 0 -25 20 c-44 35 -123 53 -181 41 -58 -13 -114 -40 -157 -76
-17 -14 -33 -21 -36 -16 -8 13 86 97 130 117 l39 16 -35 17 c-27 12 -65 16
-167 16 -137 0 -151 7 -46 24 61 10 169 1 242 -19 52 -14 53 -13 36 21 -21 40
-81 106 -129 141 -46 33 -30 38 23 6z"/>
<path d="M6165 8221 c-8 -17 -15 -39 -15 -50 0 -31 -19 -35 -40 -9 l-18 23
-11 -28 c-6 -16 -11 -37 -11 -48 0 -25 -27 -36 -51 -20 -17 10 -19 8 -19 -17
0 -15 9 -44 20 -65 31 -58 27 -70 -20 -62 -46 8 -48 4 -20 -35 l20 -29 -20 -6
c-24 -8 -26 -28 -5 -45 12 -10 13 -16 4 -26 -10 -12 0 -14 58 -14 104 0 147
-44 50 -52 -30 -2 -42 -10 -59 -36 l-21 -33 62 7 c84 9 79 -17 -14 -64 -59
-30 -84 -62 -101 -131 -18 -71 -9 -98 24 -68 27 24 32 21 32 -17 0 -40 12 -52
30 -31 17 20 30 10 30 -23 0 -15 5 -34 10 -42 9 -13 12 -13 21 3 18 30 32 20
26 -19 -11 -65 2 -72 45 -23 37 44 38 44 32 14 -6 -35 16 -117 33 -122 7 -3
15 14 20 39 l9 43 18 -57 c10 -32 25 -66 32 -75 13 -17 15 -16 33 7 l19 24 11
-24 c5 -14 14 -38 19 -55 12 -43 26 -33 30 21 3 36 6 44 18 40 27 -10 32 2 22
50 -8 37 -7 47 6 57 13 10 14 20 5 56 -5 24 -8 49 -6 55 4 10 25 -30 73 -139
16 -37 18 -38 22 -15 8 48 21 44 47 -13 27 -58 41 -69 51 -42 9 22 22 18 30
-7 12 -42 24 -50 50 -33 22 14 24 14 39 -14 17 -34 49 -48 70 -31 10 9 15 6
20 -10 8 -24 62 -80 78 -80 10 0 5 61 -8 93 -5 13 -2 17 12 17 10 0 24 -5 31
-12 24 -24 20 -1 -5 27 -57 67 -68 99 -23 75 39 -21 41 -6 5 47 -19 29 -35 57
-35 63 0 13 17 13 25 0 3 -5 13 -10 21 -10 12 0 11 8 -7 40 -26 46 -23 55 14
41 43 -17 41 5 -4 54 -34 37 -38 46 -25 51 9 3 25 4 36 1 11 -3 22 -1 25 4 9
13 -56 49 -90 49 l-30 0 25 20 c31 24 22 32 -56 49 -60 14 -72 31 -21 31 41 0
26 11 -68 46 -72 27 -114 54 -85 54 8 0 50 -11 93 -25 94 -30 105 -31 82 -5
-17 19 -17 20 1 21 10 1 37 0 59 -1 41 -2 42 5 3 24 -12 6 -24 17 -26 25 -4
11 7 13 57 8 73 -6 78 7 13 38 -30 14 -41 24 -36 35 14 34 9 45 -23 48 -39 4
-42 18 -8 34 38 17 25 32 -34 39 -65 9 -71 14 -31 28 43 14 29 31 -26 31 -49
0 -52 4 -27 32 15 17 15 20 3 28 -8 5 -22 7 -31 5 -30 -10 -51 6 -44 33 6 26
10 26 -63 6 -21 -6 -22 -5 -11 20 18 38 6 41 -47 12 -26 -14 -49 -24 -52 -21
-3 3 0 17 7 31 12 26 11 27 -21 21 -18 -3 -41 -8 -50 -12 -15 -6 -18 -2 -18
20 0 26 -2 27 -35 21 -33 -6 -35 -5 -35 19 0 30 -12 31 -56 4 -39 -24 -57 -18
-48 17 8 31 -6 31 -36 -1 -28 -30 -50 -32 -50 -6 0 33 -18 33 -35 2z m269
-186 c-4 -8 -9 -15 -13 -15 -4 0 -25 -24 -46 -52 -22 -29 -43 -55 -46 -58 -12
-10 -39 -69 -39 -86 0 -12 5 -15 23 -9 12 4 36 9 52 12 19 4 58 32 107 79 42
40 91 80 109 90 34 17 89 35 89 29 0 -2 -29 -21 -64 -43 -55 -35 -136 -113
-136 -132 0 -4 33 -2 73 2 94 12 212 -4 274 -36 59 -31 53 -32 -39 -6 -99 27
-268 27 -268 -1 0 -5 5 -9 12 -9 29 0 138 -112 138 -142 0 -6 -22 10 -48 34
-102 91 -217 118 -305 72 l-39 -20 59 -13 c76 -17 150 -51 194 -89 21 -18 56
-36 83 -42 63 -14 120 -44 178 -92 50 -43 78 -85 36 -54 -56 39 -107 66 -139
72 l-34 7 61 -59 c101 -99 179 -235 189 -332 6 -53 10 -59 -55 83 -20 44 -49
95 -64 113 -30 35 -66 43 -66 15 -1 -26 -37 -103 -49 -103 -5 0 -1 25 10 57
38 110 26 138 -103 236 -101 77 -203 127 -275 134 l-58 6 42 -47 c23 -26 50
-67 60 -92 13 -32 25 -46 43 -50 48 -11 81 -27 110 -54 47 -44 35 -54 -16 -15
-28 22 -57 35 -75 35 -16 0 -29 -1 -29 -3 0 -1 10 -30 21 -62 12 -33 24 -90
27 -126 6 -87 -13 -101 -22 -16 -11 99 -46 205 -79 238 -15 16 -32 29 -37 29
-22 0 -35 -37 -34 -98 2 -80 -15 -60 -23 27 -5 51 -3 60 21 88 25 30 26 34 12
60 -20 40 -47 67 -78 81 -35 15 -35 22 3 58 16 16 49 65 72 108 24 45 68 107
102 143 57 60 91 81 79 48z"/>
<path d="M5056 8160 c-48 -9 -77 -43 -100 -112 -27 -85 -22 -111 29 -156 54
-47 103 -72 156 -79 36 -5 39 -4 39 19 0 14 7 43 16 64 33 79 15 264 -26 264
-9 0 -30 2 -46 4 -16 3 -47 1 -68 -4z"/>
<path d="M5231 8103 c1 -124 32 -158 139 -148 105 10 118 36 36 78 -29 15 -78
50 -109 77 -30 28 -58 50 -61 50 -3 0 -6 -26 -5 -57z"/>
<path d="M4459 8053 c-76 -84 -89 -109 -89 -175 0 -68 11 -100 50 -145 17 -19
30 -40 30 -48 0 -7 5 -26 10 -41 l11 -27 27 30 c15 17 51 50 81 74 55 45 111
120 111 149 0 9 -10 25 -22 36 -24 22 -114 156 -123 184 -10 32 -30 23 -86
-37z"/>
<path d="M3224 7950 c-24 -40 -39 -43 -54 -12 l-12 27 -14 -25 c-7 -14 -13
-37 -14 -52 0 -35 -17 -44 -40 -23 -23 21 -28 13 -32 -50 -3 -38 -4 -40 -35
-37 -18 1 -33 -3 -33 -8 0 -11 32 -73 52 -102 16 -22 6 -31 -32 -30 -33 1 -40
-17 -15 -38 8 -7 15 -19 15 -26 0 -8 -7 -14 -15 -14 -21 0 -19 -23 5 -38 12
-7 17 -18 13 -27 -5 -14 4 -15 69 -9 61 5 76 4 87 -9 11 -14 7 -18 -32 -27
-36 -10 -47 -18 -61 -47 -9 -20 -15 -37 -13 -39 2 -2 29 5 60 15 40 14 57 16
57 8 0 -17 -9 -28 -64 -71 -68 -55 -86 -88 -86 -162 0 -33 3 -64 7 -68 4 -3
17 6 29 21 l22 28 7 -30 c13 -59 15 -62 29 -42 20 26 32 21 45 -23 13 -44 26
-51 36 -19 10 29 23 11 27 -35 4 -56 24 -56 50 1 l22 48 6 -45 c7 -51 30 -103
45 -102 6 1 12 18 15 39 l6 38 34 -67 c37 -73 54 -84 65 -40 l7 27 19 -24 c10
-13 19 -28 19 -35 0 -6 10 -22 21 -36 l20 -25 -4 58 c-4 57 -3 58 20 52 27 -6
27 -8 7 51 -13 38 -13 48 -3 55 13 8 7 49 -16 102 -4 9 -3 17 2 17 5 0 31 -37
59 -82 l49 -83 5 34 c5 32 6 34 22 18 9 -9 26 -32 38 -52 24 -39 34 -43 50
-17 8 12 13 13 16 5 3 -7 14 -23 25 -35 l19 -23 19 23 20 23 17 -26 c25 -38
52 -50 73 -31 15 14 18 12 36 -15 19 -30 72 -65 82 -56 4 5 -8 54 -23 91 -7
17 -4 19 27 12 l34 -6 -48 48 c-49 50 -53 67 -10 51 40 -15 38 -4 -6 49 -48
56 -50 67 -16 58 33 -8 33 10 -2 46 l-27 28 37 0 c51 0 48 21 -8 60 -51 35
-51 50 1 50 19 0 34 4 34 9 0 14 -80 42 -101 36 -24 -8 -25 10 -1 24 15 9 15
12 2 21 -8 5 -33 10 -55 11 -22 0 -49 4 -60 9 -18 7 -16 9 12 15 18 4 31 11
28 14 -2 4 -40 16 -84 26 -44 10 -85 22 -93 26 -29 18 7 21 91 5 107 -19 111
-19 87 -1 -27 20 -12 33 44 37 l45 4 -38 17 c-46 22 -40 37 16 37 51 0 80 15
57 30 -8 5 -32 12 -52 15 -42 7 -43 8 -27 37 13 25 -4 40 -37 32 -30 -8 -38
10 -14 31 31 28 24 35 -35 35 -57 0 -74 15 -30 26 42 10 28 24 -25 24 -27 0
-50 2 -50 5 0 3 7 17 16 30 l16 25 -52 0 -52 0 6 31 6 31 -46 -27 -46 -27 7
31 c8 39 -6 40 -51 6 -43 -33 -55 -32 -44 4 8 28 7 29 -20 21 -15 -4 -37 -13
-49 -19 -22 -12 -25 -9 -21 23 1 16 -3 17 -26 12 -47 -12 -48 -12 -52 12 -4
28 -10 28 -52 -3 -36 -26 -50 -25 -50 5 0 32 -18 32 -36 0z m436 -148 c0 -4
-22 -25 -49 -45 -44 -34 -130 -142 -120 -151 2 -2 45 5 94 16 102 22 210 19
265 -6 l35 -16 -45 7 c-113 15 -263 1 -294 -28 -6 -5 7 -15 30 -25 42 -17 136
-102 128 -116 -3 -4 -17 3 -32 17 -37 34 -98 63 -164 77 -65 14 -126 0 -173
-38 l-30 -24 45 0 c65 0 157 -26 211 -59 28 -17 66 -30 102 -34 31 -4 80 -16
109 -28 51 -20 153 -87 145 -95 -2 -3 -27 7 -55 22 -28 14 -73 29 -99 31 l-48
5 40 -27 c71 -49 175 -158 211 -222 35 -63 67 -143 61 -150 -2 -2 -25 33 -52
78 -48 83 -133 179 -158 179 -8 0 -19 -23 -28 -62 -8 -34 -19 -63 -26 -65 -9
-3 -10 4 -2 29 5 18 9 57 9 87 0 48 -3 57 -34 85 -89 83 -281 165 -386 166
l-65 0 46 -43 c25 -23 58 -61 74 -85 23 -34 33 -42 59 -42 37 0 105 -30 125
-54 21 -26 7 -29 -23 -5 -29 23 -116 39 -116 22 0 -6 11 -30 25 -55 28 -51 58
-159 52 -191 -4 -26 -4 -26 -42 97 -16 49 -42 109 -59 135 -35 51 -80 75 -97
51 -9 -14 -7 -72 6 -130 3 -14 -6 -2 -20 25 -30 61 -31 79 -5 129 19 38 19 39
1 65 -27 38 -52 57 -83 65 -35 8 -36 33 -3 64 13 13 31 48 40 79 24 82 70 168
117 219 23 24 43 43 45 40 2 -2 -18 -39 -44 -83 -50 -81 -81 -158 -70 -170 4
-4 25 3 46 15 21 12 45 22 53 22 7 0 22 15 33 33 28 48 114 136 164 169 49 31
51 32 51 20z"/>
<path d="M5283 7934 c-29 -7 -53 -60 -59 -136 -8 -88 16 -124 106 -154 36 -12
81 -24 100 -27 l36 -5 -4 101 c-3 102 -22 186 -45 206 -15 11 -102 21 -134 15z"/>
<path d="M4306 7874 c-4 -9 -4 -37 0 -63 4 -33 0 -63 -13 -104 -16 -46 -17
-57 -6 -57 23 0 71 28 86 51 13 18 12 25 -8 62 -13 23 -27 59 -30 80 -8 42
-20 55 -29 31z"/>
<path d="M4868 7868 c-44 -68 -48 -182 -9 -268 27 -60 47 -82 106 -115 28 -15
69 -38 91 -51 l42 -25 35 88 c40 101 58 194 48 242 -6 31 -12 36 -71 56 -36
12 -98 38 -137 58 -40 21 -77 37 -82 37 -5 0 -15 -10 -23 -22z"/>
<path d="M4674 7761 c-43 -31 -101 -92 -128 -131 -21 -32 -20 -72 3 -118 25
-49 41 -66 133 -140 l78 -62 26 53 c33 64 54 139 54 192 0 59 -89 235 -119
235 -4 0 -26 -13 -47 -29z"/>
<path d="M4380 7647 c-33 -26 -60 -76 -60 -111 0 -22 17 -73 44 -129 24 -50
47 -102 52 -115 9 -21 10 -22 32 -7 40 29 72 107 72 178 0 36 -3 79 -6 96 -6
28 -10 32 -30 27 -19 -5 -26 0 -40 26 -24 48 -39 56 -64 35z"/>
<path d="M5223 7598 c-12 -13 -35 -52 -53 -87 -24 -49 -30 -71 -26 -97 8 -42
63 -90 118 -104 24 -5 60 -15 81 -21 22 -6 40 -9 42 -7 13 16 57 202 58 250
l2 63 -75 12 c-107 17 -124 16 -147 -9z"/>
<path d="M2488 7553 c-8 -24 -13 -81 -13 -153 1 -95 5 -125 23 -170 27 -65 37
-53 -123 -144 -167 -94 -327 -202 -460 -310 -131 -106 -349 -306 -341 -313 2
-2 82 58 178 134 95 76 185 147 199 158 15 11 77 59 138 108 152 119 282 208
369 252 41 20 75 35 76 33 1 -2 13 -20 25 -40 37 -61 126 -136 183 -153 66
-19 102 -19 145 2 90 42 76 205 -21 264 -54 33 -174 22 -289 -26 -14 -6 -22 4
-43 51 -36 81 -51 195 -36 275 13 73 10 86 -10 32z m372 -378 c33 -32 55 -94
44 -128 -12 -41 -35 -57 -80 -57 -51 0 -86 12 -137 47 -46 32 -121 123 -110
134 18 18 123 38 185 36 59 -2 71 -6 98 -32z"/>
<path d="M7030 7567 c0 -18 73 -150 131 -237 77 -115 187 -226 259 -262 124
-63 256 -16 320 112 10 20 3 16 -31 -16 -63 -59 -104 -78 -171 -78 -82 1 -154
41 -253 139 -74 75 -172 206 -231 308 -13 23 -24 39 -24 34z"/>
<path d="M4864 7448 c-32 -39 -74 -125 -74 -153 1 -39 38 -103 70 -120 18 -9
54 -32 80 -51 l48 -34 18 27 c10 16 23 34 30 40 20 20 54 120 54 158 0 49 -18
81 -59 108 -28 18 -121 57 -137 57 -1 0 -15 -15 -30 -32z"/>
<path d="M8024 7375 c-15 -24 -17 -24 -46 -9 -38 19 -51 6 -44 -43 5 -31 4
-32 -27 -26 l-32 6 28 -32 c34 -41 34 -51 0 -51 l-27 0 29 -30 c16 -16 36 -30
44 -30 11 0 9 -6 -9 -20 -25 -19 -25 -19 -5 -35 16 -13 32 -14 80 -8 33 4 101
7 151 7 80 -1 99 -4 157 -31 67 -32 217 -138 217 -155 0 -10 -6 -7 -72 38 -26
18 -76 42 -110 53 -90 30 -328 64 -328 47 0 -3 33 -38 73 -78 118 -117 195
-222 270 -366 74 -142 73 -181 -1 -46 -60 109 -149 223 -271 349 -77 79 -106
103 -113 93 -11 -17 -1 -113 23 -216 12 -50 19 -108 17 -145 -3 -61 -3 -61
-16 -32 -21 46 -70 242 -81 318 -6 45 -6 78 0 95 13 33 -4 50 -61 63 -30 7
-46 6 -54 -1 -11 -11 -5 -18 41 -46 31 -20 9 -24 -42 -8 -68 20 -87 16 -57
-14 l22 -22 -40 0 c-46 0 -52 -11 -15 -28 36 -17 31 -27 -22 -43 -54 -17 -66
-35 -29 -45 32 -8 33 -21 4 -51 l-21 -23 20 0 c28 0 53 -10 53 -21 0 -5 -8 -9
-19 -9 -32 0 -104 -70 -88 -86 2 -2 28 7 58 21 30 14 60 25 67 25 25 0 23 -29
-3 -64 -23 -30 -25 -37 -12 -42 9 -3 21 -3 28 1 10 7 8 -8 -8 -52 -4 -10 2
-10 26 -2 17 6 34 15 37 20 13 22 24 6 24 -36 0 -40 2 -45 23 -45 12 0 32 7
44 15 22 15 22 15 25 -45 2 -33 8 -61 13 -63 6 -1 18 13 27 32 19 38 28 30 31
-31 2 -29 5 -34 21 -30 24 6 46 60 46 112 0 37 13 55 22 28 2 -6 11 -9 20 -5
17 6 38 84 38 139 0 25 3 29 12 20 8 -8 11 -36 9 -80 -5 -92 -4 -142 3 -150 4
-3 16 -1 27 7 20 12 21 11 14 -55 -6 -54 -5 -66 6 -62 8 3 15 14 17 26 5 34
39 28 58 -10 17 -35 53 -78 64 -78 4 0 20 18 35 40 32 46 44 46 25 0 -12 -28
-11 -33 10 -55 17 -18 25 -41 28 -80 2 -30 8 -52 13 -49 18 11 60 105 65 148
5 32 10 43 20 39 18 -7 18 2 -3 61 -18 48 -18 49 5 64 27 17 28 43 5 80 -10
14 -18 42 -18 61 0 29 -6 39 -35 59 -46 30 -47 37 -10 52 37 15 33 20 -45 49
-65 24 -115 64 -115 93 0 24 22 23 37 -2 13 -20 49 -42 92 -55 17 -5 21 -4 16
4 -9 15 2 61 15 61 5 0 26 -21 46 -47 l37 -48 -7 36 c-3 19 -3 38 0 42 4 3 28
-16 53 -43 26 -28 53 -50 60 -50 7 0 11 3 9 8 -17 34 -88 185 -88 187 0 2 13
-2 30 -8 16 -6 32 -9 35 -6 9 10 -17 73 -37 92 -16 13 -19 24 -14 52 7 35 6
36 -41 58 -42 19 -48 26 -45 48 4 37 -38 70 -79 62 -35 -7 -36 3 -8 51 l21 36
-24 0 c-12 0 -42 -9 -65 -19 l-42 -19 -3 21 c-3 20 -9 22 -68 22 -64 0 -65 1
-68 28 -3 24 -7 27 -25 21 -12 -3 -34 -17 -49 -31 -31 -30 -48 -23 -48 18 0
37 -32 40 -56 4z"/>
<path d="M4539 7353 c-33 -34 -69 -93 -69 -112 0 -10 109 -183 139 -221 2 -3
6 1 8 8 3 7 25 36 50 65 24 28 52 65 60 82 22 41 20 101 -3 127 -29 31 -87 66
-125 73 -29 5 -38 2 -60 -22z"/>
<path d="M5138 7284 c-18 -21 -68 -122 -68 -140 0 -35 169 -182 178 -155 3 8
18 39 34 70 31 58 68 154 68 177 0 21 -79 56 -139 61 -46 4 -59 2 -73 -13z"/>
<path d="M4740 7139 c-72 -92 -66 -119 56 -240 55 -54 74 -68 74 -54 0 11 23
59 51 107 28 49 49 95 47 104 -2 9 -45 43 -96 75 l-92 58 -40 -50z"/>
<path d="M4995 7033 c-36 -39 -59 -105 -51 -146 7 -36 27 -58 93 -100 l42 -26
20 32 c31 51 81 160 81 179 0 18 -34 44 -93 71 -51 23 -62 22 -92 -10z"/>
<path d="M1210 6570 c0 -45 -10 -49 -47 -20 -29 22 -78 28 -70 8 2 -7 1 -23
-4 -35 -7 -19 -16 -23 -53 -23 -58 0 -76 -8 -76 -32 0 -20 -4 -20 -86 -1 -35
8 -39 -16 -8 -48 30 -32 28 -41 -13 -45 -29 -3 -63 -36 -63 -59 0 -8 7 -20 15
-28 13 -13 11 -16 -14 -27 -16 -6 -39 -22 -51 -35 -21 -22 -21 -24 -5 -49 16
-24 16 -27 -4 -52 -13 -17 -21 -41 -21 -66 l0 -39 30 16 c23 12 30 12 30 3 0
-15 -35 -155 -45 -181 -6 -13 -3 -16 9 -11 18 7 76 86 76 103 0 6 4 11 9 11
12 0 23 -48 15 -62 -4 -6 -3 -8 3 -5 6 4 20 27 32 53 24 51 44 53 51 5 l5 -33
47 36 c26 20 50 45 53 56 7 23 28 22 33 -2 4 -23 -43 -74 -106 -114 -42 -27
-52 -38 -41 -45 8 -5 22 -9 32 -9 25 0 21 -16 -13 -47 -31 -27 -39 -60 -19
-80 8 -8 6 -19 -5 -41 -24 -46 -20 -71 10 -83 26 -9 27 -11 20 -70 -5 -50 -3
-60 8 -56 9 4 19 -9 31 -39 9 -24 36 -65 59 -91 l43 -47 -5 62 c-3 45 0 68 11
85 14 22 14 27 -4 57 -27 44 -19 46 21 5 19 -19 40 -35 47 -35 15 0 31 28 47
84 14 49 41 60 56 22 10 -27 30 -36 30 -13 0 6 -7 34 -15 61 -19 62 -19 72 0
56 12 -10 19 -10 28 -1 9 9 7 27 -7 79 -23 81 -32 157 -18 148 5 -3 12 -18 15
-33 10 -52 46 -123 62 -123 8 0 15 7 15 15 0 34 20 11 34 -40 15 -48 44 -85
68 -85 5 0 8 23 8 52 l0 52 29 -34 29 -35 7 27 c4 15 2 42 -4 59 -6 18 -11 33
-11 35 0 1 19 2 43 1 l42 -2 -2 43 c-2 46 2 48 55 33 37 -11 40 -4 11 33 l-20
26 25 0 c34 0 33 7 -5 46 -17 18 -28 37 -25 43 9 14 49 14 97 -1 22 -6 42 -8
46 -5 11 11 -50 57 -85 63 -40 8 -37 24 8 39 l35 12 -27 6 c-36 9 -43 35 -16
57 29 24 20 32 -42 38 -27 2 -50 8 -50 12 0 5 12 18 28 30 l27 21 -42 -3 c-48
-4 -50 -2 -26 24 27 30 9 31 -51 2 -61 -30 -85 -27 -43 7 37 28 36 52 0 43
-36 -9 -80 -31 -88 -44 -4 -6 1 -27 10 -47 15 -32 17 -61 13 -222 -5 -204 -17
-262 -37 -172 -6 29 -11 109 -11 179 0 125 -12 202 -30 202 -6 0 -10 -4 -10
-8 0 -5 -32 -58 -71 -118 -90 -139 -159 -276 -193 -383 -33 -104 -50 -134 -41
-73 17 132 139 412 241 555 33 45 33 47 11 47 -26 0 -119 -28 -195 -59 -77
-31 -162 -86 -203 -133 -19 -23 -41 -39 -48 -37 -6 2 26 45 74 96 70 75 100
99 161 129 67 34 85 38 177 43 74 4 111 11 130 24 34 22 34 33 1 41 l-26 7 36
36 c38 39 38 58 0 49 -29 -8 -30 -1 -4 42 26 43 25 45 -10 27 l-30 -16 0 34
c0 49 -17 61 -52 35 l-29 -20 -15 21 c-8 11 -24 21 -35 21 -16 0 -19 -7 -19
-40z"/>
<path d="M4510 6578 c72 -29 72 -29 211 -303 76 -148 142 -271 147 -273 15 -5
36 29 183 292 95 171 142 244 161 255 16 9 28 19 28 24 0 4 -29 7 -64 7 -35 0
-78 3 -95 6 -20 4 -31 3 -31 -5 0 -6 14 -14 30 -17 41 -9 40 -39 -4 -129 -35
-73 -162 -305 -174 -317 -7 -7 -223 409 -222 429 0 6 9 15 20 18 49 16 12 25
-97 24 -90 0 -112 -3 -93 -11z"/>
<path d="M4040 6560 c-30 -4 -83 -8 -117 -9 -35 -1 -63 -5 -63 -11 0 -5 13
-10 29 -10 16 0 39 -8 51 -18 20 -16 23 -34 36 -197 8 -99 13 -205 12 -235 -3
-51 -5 -56 -35 -70 -41 -19 -43 -34 -3 -27 16 4 76 9 135 13 58 4 105 11 105
15 0 5 -15 9 -34 9 -60 0 -75 23 -85 130 -4 52 -6 98 -4 103 2 4 28 7 57 7
l52 0 92 -99 c122 -131 193 -164 279 -130 l28 12 -39 8 c-52 12 -86 37 -192
143 l-91 91 55 52 c55 51 55 51 50 102 -9 88 -58 122 -182 126 -45 2 -106 0
-136 -5z m163 -44 c96 -41 111 -158 26 -199 -42 -19 -154 -33 -162 -20 -9 15
-21 199 -14 217 8 21 104 22 150 2z"/>
<path d="M5320 6561 c0 -5 12 -12 27 -16 62 -15 63 -25 33 -293 -25 -226 -24
-221 -60 -229 -58 -11 -39 -21 53 -28 50 -4 140 -15 199 -25 120 -21 157 -16
208 26 16 14 30 34 30 45 0 24 -1 24 -47 -3 -34 -21 -51 -23 -165 -23 -166 0
-162 -3 -147 134 l12 103 71 -7 c117 -11 146 -21 153 -55 8 -44 33 -38 33 8 0
20 4 54 9 75 11 48 -4 58 -33 22 l-22 -28 -97 10 c-54 6 -100 13 -104 16 -8 9
14 198 25 209 12 12 197 -9 232 -25 16 -8 26 -22 28 -40 5 -44 29 -32 41 21 5
26 7 50 3 53 -4 4 -72 12 -152 19 -80 6 -181 18 -225 26 -95 16 -105 17 -105
5z"/>
<path d="M3575 6499 c-44 -11 -145 -30 -224 -43 -93 -14 -146 -27 -149 -35 -3
-9 2 -11 17 -6 28 9 59 -2 72 -26 13 -26 79 -383 79 -432 0 -30 -5 -40 -25
-49 -14 -6 -25 -15 -25 -20 0 -11 -3 -11 108 11 54 11 129 23 167 26 137 13
201 50 220 128 9 35 -10 36 -37 2 -38 -49 -185 -104 -276 -105 -25 0 -35 5
-42 24 -12 33 -35 185 -28 191 3 3 49 13 102 23 l97 16 23 -29 c14 -17 27 -27
30 -24 11 11 -18 159 -31 159 -7 0 -13 -9 -13 -20 0 -28 -36 -48 -116 -65
-114 -24 -107 -29 -128 86 -11 61 -14 105 -9 110 13 13 154 39 209 39 39 0 45
-3 60 -31 11 -21 19 -28 26 -21 14 14 0 112 -15 111 -7 0 -48 -9 -92 -20z"/>
<path d="M6005 6447 c-31 -75 -28 -112 6 -71 20 25 65 44 101 43 44 0 205 -32
214 -42 5 -4 -5 -20 -21 -34 -163 -145 -416 -396 -408 -404 9 -8 383 -79 418
-79 22 0 90 62 79 73 -4 3 -22 0 -41 -8 -20 -8 -52 -15 -72 -15 -49 0 -261 40
-261 50 0 4 44 50 97 101 285 275 337 328 331 335 -6 6 -159 36 -391 78 -36 7
-38 5 -52 -27z"/>
<path d="M2910 6340 c-245 -16 -414 -153 -413 -335 1 -143 103 -245 261 -261
111 -12 290 50 381 132 44 40 46 44 43 88 -2 25 -7 46 -11 46 -3 0 -14 -20
-24 -44 -21 -50 -85 -114 -145 -145 -23 -12 -72 -26 -109 -32 -58 -10 -76 -10
-127 5 -114 33 -196 145 -196 267 0 89 46 156 139 204 107 54 225 54 318 0 23
-14 46 -25 52 -25 6 0 -1 25 -16 55 -15 30 -32 54 -38 53 -5 0 -57 -4 -115 -8z"/>
<path d="M8780 6335 c-11 -13 -9 -25 10 -66 40 -85 29 -139 -42 -192 -39 -29
-374 -174 -570 -246 -827 -304 -1714 -405 -2663 -301 -656 72 -1145 95 -1780
87 -1313 -18 -2326 -200 -2975 -532 -206 -106 -263 -155 -318 -272 -24 -51
-27 -70 -27 -153 1 -112 3 -118 133 -348 110 -194 201 -375 235 -467 119 -328
139 -373 214 -487 81 -124 197 -205 332 -234 36 -7 143 -17 236 -20 192 -8
219 -2 213 44 -5 39 -52 61 -160 74 -119 14 -159 42 -100 71 43 22 389 80 697
116 491 59 793 75 1360 75 476 0 645 -6 1035 -39 465 -40 617 -47 1080 -52
492 -5 726 2 1060 33 517 48 990 149 1310 280 74 30 173 70 220 88 179 69 296
142 393 245 124 132 162 251 178 556 20 407 59 663 163 1081 36 143 70 288 76
324 29 186 -5 261 -146 320 -80 33 -144 39 -164 15z m148 -57 c67 -25 109 -66
118 -115 12 -66 -5 -197 -51 -373 -126 -486 -172 -785 -191 -1220 -9 -218 -36
-292 -148 -417 -90 -100 -256 -202 -431 -266 -38 -14 -104 -41 -145 -60 -131
-61 -447 -160 -610 -191 -535 -104 -935 -139 -1575 -138 -399 0 -654 12 -1160
52 -487 39 -729 50 -1080 50 -755 0 -1514 -76 -2104 -210 -195 -44 -250 -73
-237 -124 4 -17 19 -29 48 -40 44 -16 170 -40 269 -52 60 -6 88 -18 76 -30 -4
-5 -92 -1 -195 8 -214 18 -273 35 -355 102 -118 96 -204 244 -295 506 -28 80
-67 180 -86 222 -42 92 -162 314 -247 458 -53 91 -70 144 -70 222 1 173 90
269 376 408 514 249 1209 400 2180 474 359 28 1045 39 1415 22 279 -12 619
-35 830 -56 107 -11 258 -27 335 -35 133 -13 212 -18 495 -30 274 -12 784 24
1095 76 442 74 846 192 1255 364 74 32 157 66 184 77 126 49 187 92 216 148
27 52 26 125 -1 169 l-20 33 26 -6 c14 -4 52 -16 83 -28z"/>
<path d="M8754 5929 c-65 -73 -243 -168 -403 -215 -51 -16 -96 -34 -98 -42 -3
-7 3 -26 15 -41 31 -42 82 -149 109 -226 39 -114 53 -231 51 -430 -2 -204 14
-295 74 -413 59 -115 72 -114 109 8 21 71 23 95 25 415 3 405 14 486 99 744
66 202 72 258 19 200z"/>
<path d="M7915 5585 c-5 -2 -56 -9 -111 -15 l-101 -12 -16 -57 c-30 -109 -122
-210 -204 -226 -47 -8 -107 -53 -153 -114 -76 -101 -130 -316 -116 -466 11
-123 79 -345 129 -420 65 -98 256 -195 384 -195 71 0 133 -64 133 -137 0 -17
15 -16 81 3 94 28 93 24 85 214 -13 319 -57 725 -92 850 -8 30 -18 112 -21
182 -6 139 6 249 38 333 10 28 19 53 19 58 0 7 -36 9 -55 2z"/>
<path d="M3563 5483 c-46 -2 -83 -6 -83 -8 0 -2 15 -50 34 -107 45 -133 63
-227 71 -363 19 -321 69 -757 111 -965 40 -198 76 -259 165 -280 64 -16 79 -9
79 34 0 61 -48 323 -105 568 -71 305 -85 396 -92 593 -6 184 5 290 44 418 19
64 23 91 15 99 -12 12 -115 17 -239 11z"/>
<path d="M3209 5470 c-42 -4 -82 -11 -88 -14 -18 -11 -13 -35 18 -90 37 -67
47 -100 65 -223 15 -98 36 -159 60 -175 6 -4 21 -8 34 -8 38 0 44 38 37 225
-5 135 -3 181 8 225 21 76 23 75 -134 60z"/>
<path d="M4101 5408 c43 -138 131 -500 150 -616 15 -94 21 -184 23 -370 3
-161 9 -278 19 -337 29 -169 59 -310 68 -321 5 -7 73 -14 166 -18 87 -4 168
-9 181 -13 31 -7 28 11 -12 66 -47 64 -125 202 -165 291 -135 304 -133 634 6
903 55 107 134 216 226 312 37 38 67 73 67 77 0 24 -512 88 -712 88 l-36 0 19
-62z"/>
<path d="M8091 5453 c-33 -28 -36 -91 -12 -233 12 -68 25 -128 30 -133 15 -15
111 3 133 25 18 18 20 31 16 132 -3 90 -8 120 -26 157 -32 66 -95 89 -141 52z"/>
<path d="M2601 5439 c-143 -13 -391 -69 -391 -89 0 -5 18 -36 40 -68 101 -153
162 -394 200 -787 28 -298 44 -392 92 -530 46 -134 126 -247 186 -262 28 -7
175 11 216 27 21 8 25 20 44 147 42 269 51 484 31 738 -11 146 -21 208 -65
415 -22 100 -27 153 -28 265 0 82 -5 143 -11 147 -13 10 -192 8 -314 -3z m165
-712 c59 -51 35 -197 -33 -197 -35 0 -90 38 -104 72 -21 50 18 117 81 141 24
9 28 8 56 -16z"/>
<path d="M7115 5425 c-93 -12 -196 -29 -227 -39 -57 -16 -57 -16 -65 -64 -12
-69 -8 -325 6 -412 6 -41 25 -132 42 -202 49 -211 61 -316 56 -478 -7 -195
-39 -304 -135 -464 -23 -37 -42 -71 -42 -74 0 -9 291 7 400 23 58 8 151 26
207 40 104 25 290 89 308 106 15 15 -10 26 -76 33 -74 9 -184 46 -257 88 -31
18 -89 64 -129 104 -121 121 -183 275 -203 500 -32 368 93 679 330 820 27 16
50 32 50 37 0 12 -84 6 -265 -18z"/>
<path d="M5078 5336 c6 -77 -11 -98 -133 -157 -307 -149 -439 -448 -361 -814
22 -105 72 -226 126 -308 84 -125 132 -157 241 -157 118 0 179 -51 179 -148 0
-23 4 -43 9 -46 16 -10 119 -19 146 -12 32 8 39 26 69 180 62 310 59 684 -9
1134 -13 89 -64 343 -69 349 -3 4 -168 33 -187 33 -13 0 -15 -9 -11 -54z"/>
<path d="M5495 5350 c-4 -6 3 -30 15 -54 31 -66 43 -149 33 -244 -14 -125 -1
-213 44 -302 31 -61 43 -76 64 -78 34 -4 55 22 74 93 24 91 40 360 29 485 l-9
105 -122 3 c-77 2 -124 -1 -128 -8z"/>
<path d="M5881 5341 c-12 -8 -11 -24 8 -111 20 -87 23 -117 17 -218 -3 -64 -9
-170 -12 -234 -14 -256 50 -774 121 -994 39 -118 41 -120 125 -126 88 -7 285
6 323 21 l28 11 -54 66 c-103 124 -195 322 -228 489 -15 79 -17 245 -4 560 9
233 -1 345 -39 455 -15 46 -29 68 -46 77 -29 15 -217 17 -239 4z"/>
<path d="M6530 5329 c-19 -5 -84 -12 -143 -15 -94 -6 -107 -9 -101 -23 69
-161 112 -390 120 -646 12 -383 65 -586 161 -610 35 -8 71 18 93 68 46 106 51
410 10 700 -17 123 -40 406 -40 505 0 30 -2 32 -32 31 -18 -1 -49 -5 -68 -10z"/>
<path d="M1820 5293 c-178 -40 -500 -123 -534 -137 l-39 -16 6 -233 c9 -336
45 -578 121 -809 51 -158 143 -323 220 -397 32 -31 38 -33 76 -27 49 8 85 25
119 57 32 30 108 38 145 14 32 -21 48 -48 56 -95 7 -40 15 -41 108 -15 l52 16
0 62 c0 71 -22 250 -50 412 -30 168 -67 304 -101 370 -94 180 -135 427 -105
630 8 55 20 116 25 135 6 19 11 38 11 42 0 11 -34 8 -110 -9z"/>
<path d="M3926 5125 c-35 -35 -60 -220 -36 -264 11 -21 17 -22 64 -17 30 4 64
2 80 -4 l29 -11 -6 88 c-5 91 -28 175 -55 206 -19 21 -55 22 -76 2z"/>
<path d="M928 5013 c-115 -59 -239 -174 -257 -238 -28 -102 -5 -175 94 -300
64 -80 114 -165 152 -257 23 -56 26 -80 29 -203 4 -171 13 -216 59 -293 72
-123 208 -197 403 -217 69 -8 78 2 44 46 -173 226 -308 712 -367 1319 -9 91
-18 171 -20 178 -8 22 -42 13 -137 -35z"/>
<path d="M2119 4953 c-11 -29 -5 -137 11 -203 4 -19 11 -46 14 -60 5 -24 9
-25 66 -25 l60 0 0 51 c0 79 -44 206 -85 248 -25 25 -54 20 -66 -11z"/>
<path d="M8153 4829 c-34 -37 -41 -58 -42 -126 -1 -63 18 -148 60 -268 29 -82
32 -103 35 -230 3 -155 7 -162 60 -123 44 33 123 107 161 151 l32 37 -20 47
c-36 82 -58 153 -83 262 -44 195 -89 281 -147 281 -20 0 -38 -10 -56 -31z"/>
<path d="M3993 4624 c-26 -26 -26 -27 -20 -147 5 -91 15 -158 42 -267 31 -123
37 -168 42 -297 4 -97 10 -153 17 -155 6 -2 54 -1 106 2 76 4 95 8 94 20 -1 8
-18 70 -38 137 -46 159 -74 299 -86 437 -11 116 -29 192 -57 235 -39 60 -66
69 -100 35z"/>
<path d="M3181 4456 c-20 -23 -22 -107 -14 -416 l8 -285 225 4 c124 1 227 5
229 6 3 4 -3 23 -54 165 -40 108 -44 132 -55 266 -9 125 -33 212 -71 256 -18
21 -20 22 -32 6 -8 -10 -19 -57 -26 -105 -23 -151 -33 -188 -56 -188 -36 0
-69 77 -72 170 -2 59 -8 87 -22 105 -22 30 -44 36 -60 16z"/>
<path d="M5607 4448 c-24 -23 -24 -24 -15 -133 5 -60 7 -191 5 -290 -5 -183
-18 -256 -51 -307 -20 -31 -21 -30 78 -47 80 -15 165 -14 196 2 38 19 46 77
31 223 -33 339 -114 574 -197 574 -13 0 -34 -10 -47 -22z"/>
<path d="M2212 4407 c-13 -13 -22 -36 -22 -53 0 -51 37 -171 73 -242 37 -70
67 -190 67 -264 0 -24 3 -66 6 -95 l7 -52 76 4 c42 2 77 8 78 12 0 4 -5 24
-13 43 -32 75 -55 192 -63 321 -11 161 -35 246 -87 307 -43 50 -86 57 -122 19z"/>
<path d="M6798 6227 c-243 -259 -355 -367 -381 -367 -51 0 -26 -16 63 -41 92
-26 126 -23 70 6 -16 8 -30 23 -30 33 0 10 23 44 51 75 38 42 57 57 77 57 22
0 158 -32 234 -56 16 -5 38 -96 38 -162 0 -27 -5 -33 -32 -40 -37 -11 -39 -10
87 -42 50 -12 98 -25 108 -27 29 -9 19 12 -13 24 -18 7 -35 24 -44 45 -9 18
-38 148 -66 288 -58 293 -57 290 -73 290 -7 0 -47 -37 -89 -83z m67 -140 c10
-48 15 -90 12 -93 -7 -7 -185 35 -192 45 -2 4 30 43 72 86 57 60 77 75 83 64
4 -7 16 -53 25 -102z"/>
<path d="M8584 3493 c-112 -150 -278 -326 -561 -591 l-152 -143 26 68 c18 47
26 89 27 135 1 60 -2 70 -25 93 l-26 26 -31 -58 c-51 -95 -139 -216 -352 -485
-14 -17 -15 -16 -16 21 -1 22 -9 49 -17 61 -15 21 -16 20 -73 -57 -31 -43
-134 -156 -229 -252 l-172 -174 0 62 c0 33 -2 63 -4 66 -3 2 -56 -46 -119
-108 -103 -100 -410 -347 -410 -329 0 4 9 36 20 71 11 36 18 66 17 68 -2 1
-35 -22 -75 -52 -92 -71 -255 -175 -406 -259 -65 -36 -120 -66 -122 -66 -2 0
12 26 31 58 19 31 35 60 35 65 0 14 -54 -5 -113 -39 -83 -48 -253 -122 -450
-195 l-78 -29 40 48 c70 83 50 91 -93 38 -101 -38 -235 -73 -401 -106 -135
-26 -190 -42 -242 -69 -51 -25 -102 -76 -115 -113 -7 -20 -15 -27 -27 -24 -9
3 -33 8 -53 11 -27 5 -38 13 -40 28 -3 19 -17 23 -148 43 -359 56 -657 142
-967 279 -138 62 -408 203 -401 211 2 2 44 -14 94 -35 198 -86 500 -168 764
-208 166 -25 622 -25 810 0 476 65 902 202 1390 447 235 118 280 143 280 153
0 23 -84 1 -208 -54 -631 -283 -1142 -417 -1705 -449 -592 -33 -1195 104
-1702 388 -233 130 -352 217 -500 366 -78 78 -168 171 -201 207 -41 44 -107
97 -199 158 -75 51 -139 91 -140 89 -5 -5 147 -193 236 -291 46 -51 156 -164
244 -252 88 -88 230 -232 315 -321 246 -255 466 -443 750 -641 300 -210 682
-402 1005 -508 671 -219 1416 -219 2090 1 124 41 382 144 496 198 69 34 76 39
71 62 -2 14 -10 23 -16 20 -6 -2 -67 -29 -136 -59 -726 -318 -1558 -372 -2318
-153 -470 136 -938 376 -1387 712 -212 159 -241 187 -113 109 136 -82 355
-192 509 -255 286 -118 675 -221 887 -237 81 -6 83 -7 78 -29 -13 -51 36 -119
115 -159 90 -46 274 -80 646 -120 187 -20 193 -20 156 20 -15 17 -42 41 -60
55 l-32 25 186 -3 c170 -3 466 15 603 37 l45 7 -85 41 c-79 38 -82 42 -50 42
80 2 343 58 600 127 196 53 195 53 187 61 -4 3 -41 16 -83 28 l-76 22 48 12
c114 29 688 276 706 304 20 32 9 39 -55 35 l-64 -4 106 59 c205 114 631 390
631 410 0 11 -100 4 -135 -9 -11 -4 9 14 45 41 120 89 544 452 668 572 46 44
-146 -40 -333 -147 -31 -18 -19 -2 57 71 173 168 358 407 483 624 26 45 60
154 51 163 -2 2 -17 -14 -32 -35z m-200 -325 c-119 -166 -162 -217 -294 -349
-133 -134 -314 -288 -326 -277 -12 13 115 159 254 293 86 83 210 203 276 267
67 65 123 118 124 118 2 0 -13 -24 -34 -52z m-519 -296 c-38 -132 -143 -284
-349 -507 -31 -33 -46 -25 -46 25 0 44 27 87 142 232 115 144 169 217 218 294
42 66 45 69 48 42 2 -16 -4 -54 -13 -86z m210 -248 c-108 -100 -374 -317 -459
-375 -98 -66 -178 -99 -243 -99 l-47 0 107 73 c59 39 169 115 245 167 137 95
443 290 452 289 3 0 -22 -25 -55 -55z m-6098 -173 c143 -148 227 -225 285
-265 86 -59 217 -189 147 -147 -19 12 -42 21 -51 21 -10 0 -125 109 -256 243
-279 284 -348 357 -336 357 4 0 99 -94 211 -209z m5437 27 c-37 -114 -117
-231 -240 -353 -79 -79 -214 -195 -228 -195 -14 0 -5 63 15 102 12 23 110 132
218 242 108 111 207 216 220 234 13 18 25 31 28 28 3 -2 -3 -29 -13 -58z m46
-179 c0 -6 -45 -37 -135 -95 l-30 -19 34 45 c18 25 45 64 59 87 l27 43 22 -28
c12 -15 22 -30 23 -33z m-527 -156 c-3 -10 -26 -52 -51 -95 -53 -91 -159 -203
-262 -280 -73 -53 -235 -158 -245 -158 -3 0 -5 10 -5 23 0 52 55 111 221 238
90 70 205 163 254 207 50 45 91 81 92 81 1 1 0 -7 -4 -16z m677 3 c0 -8 -207
-141 -370 -238 -165 -98 -282 -152 -358 -164 -44 -7 -112 2 -112 15 0 16 559
282 748 356 97 38 92 36 92 31z m-307 -29 l47 -23 -136 -62 -135 -61 88 84
c48 46 88 84 88 84 0 1 21 -10 48 -22z m-391 -214 c7 -9 -16 -25 -83 -58 l-92
-47 71 78 c40 43 72 83 73 88 0 6 5 -2 11 -19 6 -16 15 -35 20 -42z m-533
-100 c-55 -90 -191 -213 -324 -291 -85 -50 -275 -135 -283 -127 -4 3 4 26 17
50 25 48 97 105 202 162 97 52 293 171 352 213 28 20 54 36 56 34 2 -2 -7 -20
-20 -41z m-3359 -13 c8 -5 11 -10 5 -10 -5 0 -17 5 -25 10 -8 5 -10 10 -5 10
6 0 17 -5 25 -10z m175 -55 c146 -44 346 -87 520 -112 180 -25 608 -25 815 1
180 22 378 58 529 96 163 41 173 43 111 20 -79 -30 -355 -96 -495 -119 -214
-36 -326 -44 -560 -44 -245 0 -374 12 -602 58 -121 25 -385 102 -447 131 -40
18 -18 13 129 -31z m3557 -15 c22 -13 27 -21 17 -24 -40 -14 -273 -75 -276
-72 -1 1 40 30 91 64 52 34 100 69 107 78 12 14 14 14 21 -5 4 -12 22 -30 40
-41z m-4067 10 c10 -11 16 -20 13 -20 -3 0 -13 9 -23 20 -10 11 -16 20 -13 20
3 0 13 -9 23 -20z m315 -237 c357 -252 804 -476 1188 -597 340 -107 654 -155
1032 -158 l195 -1 -120 -8 c-278 -19 -664 20 -970 96 -366 91 -784 280 -1125
508 -127 85 -388 280 -450 337 -25 23 -4 10 45 -28 50 -37 142 -105 205 -149z
m3925 153 c-149 -72 -395 -171 -491 -197 -99 -28 -201 -30 -238 -5 -15 10 -25
20 -22 23 7 7 224 76 418 133 155 45 369 94 433 98 6 0 -39 -23 -100 -52z
m-595 -35 l0 -49 -42 -11 c-24 -6 -65 -17 -93 -25 l-50 -15 29 22 c16 12 57
45 90 74 34 29 62 52 64 52 1 1 2 -21 2 -48z m-531 -47 c-98 -101 -228 -180
-387 -238 -70 -25 -220 -66 -241 -66 -42 0 43 90 122 129 34 17 143 63 242
101 99 39 209 86 245 104 36 18 67 31 69 29 3 -2 -20 -29 -50 -59z m-554 -109
c-100 -85 -255 -153 -425 -185 -123 -24 -270 -36 -270 -22 0 16 67 70 107 87
19 8 99 28 177 44 202 43 303 67 366 90 80 28 90 25 45 -14z m875 10 c0 -7 14
-25 30 -39 30 -25 31 -25 8 -30 -13 -3 -63 -7 -113 -11 -49 -3 -107 -8 -130
-11 -33 -5 -21 3 75 53 63 33 118 58 123 56 4 -2 7 -10 7 -18z m-387 -68 c-5
-38 -10 -48 -27 -52 -30 -7 -166 -22 -166 -18 0 1 26 16 58 32 31 16 75 42 97
59 22 16 41 29 42 28 0 0 -1 -22 -4 -49z m667 -57 c-9 -5 -81 -25 -160 -45
-423 -107 -597 -119 -667 -49 -14 14 -24 27 -22 29 4 3 427 62 494 68 90 8
369 6 355 -3z m-1275 -46 c-8 -16 -15 -37 -15 -46 0 -20 -35 -22 -140 -9 l-55
6 46 12 c25 7 75 25 110 41 35 16 65 28 67 27 1 -1 -4 -15 -13 -31z m379 -16
c3 -18 16 -43 29 -56 l22 -25 -50 6 c-27 3 -84 9 -125 12 -126 10 -134 15 -60
35 36 9 88 27 115 38 65 26 62 27 69 -10z m-611 -45 c-19 -7 -16 -75 4 -103
16 -22 16 -23 -2 -16 -14 5 -220 67 -270 81 -5 1 24 6 65 10 42 4 103 13 135
20 63 14 88 17 68 8z m-397 -59 c256 -55 477 -127 564 -185 22 -15 14 -15
-100 -3 -406 43 -581 87 -639 160 -24 30 -28 64 -7 64 7 0 90 -16 182 -36z
m789 6 c172 -13 263 -25 380 -52 115 -27 100 -32 -155 -48 -206 -14 -395 -9
-473 10 -47 12 -117 65 -117 89 0 14 173 15 365 1z"/>
<path d="M6964 3270 c-29 -15 -62 -31 -75 -35 -22 -7 -20 -9 14 -12 46 -5 45
-4 147 -223 110 -235 112 -241 94 -275 -19 -37 -12 -41 23 -15 16 11 76 40
133 63 115 47 150 80 150 143 0 43 -17 53 -25 15 -10 -47 -102 -121 -183 -145
-21 -7 -27 2 -83 121 -102 214 -149 322 -149 340 0 9 7 25 17 35 23 26 0 22
-63 -12z"/>
<path d="M2794 3117 c-246 -220 -357 -313 -381 -321 -16 -5 -34 -11 -42 -13
-8 -2 16 -20 53 -39 69 -35 92 -38 62 -9 -9 9 -16 25 -16 35 0 21 114 130 136
130 8 0 51 -18 95 -41 l81 -40 -7 -67 c-11 -99 -26 -138 -53 -135 -40 5 -23
-11 58 -54 79 -41 100 -44 60 -8 -11 10 -20 30 -20 44 0 14 16 143 35 285 37
271 40 306 28 306 -5 -1 -44 -33 -89 -73z m22 -59 c-3 -18 -8 -63 -12 -99 -10
-97 -11 -98 -88 -59 -36 18 -66 38 -65 44 1 12 149 145 163 145 4 1 6 -14 2
-31z"/>
<path d="M6546 3108 c-3 -7 -7 -143 -11 -303 -4 -225 -9 -296 -20 -319 -19
-37 -14 -41 22 -23 15 8 43 18 60 22 41 8 53 25 19 25 -38 0 -56 35 -56 105 0
97 2 99 94 134 45 17 89 31 97 31 7 0 38 -31 67 -68 51 -65 65 -106 40 -115
-7 -2 -10 -8 -6 -12 4 -4 13 -3 20 2 7 6 40 19 73 29 75 22 90 34 43 34 -42 0
-43 1 -271 278 -87 106 -161 192 -163 192 -3 0 -6 -6 -8 -12z m109 -199 c37
-44 63 -84 59 -88 -11 -9 -122 -51 -135 -51 -5 0 -9 50 -9 110 0 61 4 110 9
110 5 0 39 -36 76 -81z"/>
<path d="M3203 3008 c15 -13 27 -34 27 -47 0 -25 -109 -371 -137 -434 -12 -28
-24 -40 -45 -44 -15 -3 -28 -8 -28 -12 0 -6 167 -61 185 -61 6 0 -5 12 -22 26
-18 14 -33 34 -33 45 0 28 60 209 69 209 28 0 72 -25 76 -43 56 -262 72 -299
135 -318 49 -15 62 -6 28 21 -32 25 -42 49 -76 196 l-28 120 43 18 c109 45
135 185 47 252 -19 15 -79 40 -132 56 -145 44 -141 43 -109 16z m175 -76 c77
-50 66 -197 -16 -231 -26 -11 -39 -10 -81 4 -28 9 -51 22 -51 28 0 20 61 201
72 215 12 14 39 8 76 -16z"/>
<path d="M6160 2964 c-25 -7 -55 -13 -67 -13 -34 -1 -28 -21 6 -21 59 0 75
-32 140 -282 17 -64 31 -122 31 -128 0 -10 -66 38 -359 256 -110 82 -128 92
-155 87 -17 -3 -38 -9 -46 -14 -12 -7 -12 -8 3 -9 35 0 77 -31 97 -69 22 -45
110 -370 110 -409 0 -14 -10 -36 -22 -49 -24 -26 -19 -40 9 -25 10 5 44 15 76
22 58 12 69 30 18 30 -22 0 -31 7 -40 28 -18 45 -93 343 -87 349 2 3 104 -70
226 -162 122 -92 224 -164 227 -162 6 7 -8 65 -76 331 -48 184 -54 236 -30
236 5 0 9 5 9 10 0 12 -12 11 -70 -6z"/>
<path d="M3665 2814 c-18 -63 -14 -81 9 -36 8 16 23 32 32 36 24 9 145 -16
151 -31 6 -15 -72 -435 -87 -471 -6 -13 -22 -25 -40 -28 -42 -9 -29 -20 32
-27 29 -4 71 -9 93 -13 l40 -7 -27 22 c-19 15 -28 32 -28 49 1 31 84 459 91
466 7 8 150 -23 165 -35 8 -6 14 -22 14 -36 0 -14 4 -21 10 -18 6 3 10 28 10
54 l0 49 -214 41 c-117 22 -218 41 -224 41 -6 0 -18 -25 -27 -56z"/>
<path d="M5386 2809 c-3 -8 -35 -133 -71 -279 -65 -265 -86 -330 -105 -330 -5
0 -10 -4 -10 -10 0 -11 130 -2 143 10 5 5 -5 11 -22 15 -20 4 -33 14 -36 28
-5 20 26 162 38 173 8 9 190 33 200 27 14 -8 77 -145 77 -167 0 -10 -8 -25
-17 -33 -17 -13 -16 -14 7 -9 14 3 55 9 93 12 37 4 67 11 67 15 0 5 -9 9 -19
9 -38 0 -71 48 -191 285 -128 251 -145 279 -154 254z m68 -224 c54 -102 58
-95 -56 -108 -52 -6 -58 -5 -58 11 0 16 33 156 46 191 7 20 15 9 68 -94z"/>
<path d="M4220 2771 c0 -6 8 -11 19 -11 43 0 46 -18 32 -243 -17 -284 -19
-296 -47 -309 -43 -20 -25 -28 58 -28 45 0 111 -5 146 -11 57 -10 70 -9 97 6
34 17 82 90 67 99 -5 3 -20 -6 -32 -19 -29 -31 -77 -45 -157 -45 -84 0 -94 11
-87 98 3 37 7 87 10 111 l6 43 71 -7 c78 -7 94 -15 99 -47 2 -12 9 -24 17 -26
10 -3 12 1 8 17 -3 12 -2 47 3 79 9 65 -1 88 -22 45 -11 -23 -21 -29 -53 -31
-22 -2 -59 -1 -83 3 l-43 6 6 92 c10 151 2 141 101 134 94 -5 114 -16 114 -58
0 -16 4 -29 10 -29 11 0 19 28 23 80 l2 35 -130 6 c-71 4 -154 10 -182 14 -37
5 -53 4 -53 -4z"/>
<path d="M4847 2756 c-47 -17 -71 -38 -91 -81 -32 -66 -13 -144 47 -189 19
-14 67 -38 108 -52 89 -32 119 -58 125 -110 6 -48 -11 -81 -56 -112 -67 -46
-173 -5 -209 79 -17 40 -31 51 -31 23 0 -9 7 -41 16 -71 14 -46 21 -57 50 -69
116 -49 254 22 270 138 14 100 -33 156 -171 209 -97 36 -120 59 -120 121 0
120 175 123 237 4 26 -48 32 -34 21 44 -7 49 -11 55 -33 56 -14 1 -41 7 -60
13 -44 14 -56 13 -103 -3z"/>
</g>
</svg>
